<svg xmlns="http://www.w3.org/2000/svg" xmlns:xlink="http://www.w3.org/1999/xlink" width="48" height="48" viewBox="0 0 48 48"><defs><clipPath id="a"><rect width="48" height="48"/></clipPath></defs><g clip-path="url(#a)"><g transform="translate(3 3.5)"><path d="M20.993.5A20.812,20.812,0,0,0,0,21.13,20.664,20.664,0,0,0,14.354,40.7c1.05.194,1.435-.444,1.435-.992,0-.49-.017-1.788-.026-3.508-5.84,1.244-7.071-2.768-7.071-2.768a5.5,5.5,0,0,0-2.336-3.018c-1.9-1.279.147-1.253.147-1.253A4.392,4.392,0,0,1,9.718,31.29c1.872,3.154,4.914,2.243,6.114,1.716a4.368,4.368,0,0,1,1.33-2.759C12.5,29.732,7.6,27.958,7.6,20.054a7.882,7.882,0,0,1,2.16-5.536,7.218,7.218,0,0,1,.184-5.46S11.7,8.5,15.717,11.173a20.128,20.128,0,0,1,10.5,0c3.989-2.668,5.747-2.115,5.747-2.115a7.417,7.417,0,0,1,.21,5.46,7.914,7.914,0,0,1,2.152,5.535c0,7.925-4.907,9.669-9.578,10.177a4.895,4.895,0,0,1,1.417,3.817c0,2.761-.026,4.979-.026,5.649,0,.541.367,1.186,1.443.98a20.6,20.6,0,0,0,14.4-19.546A20.815,20.815,0,0,0,20.993.5Z"/><path d="M20.993.5A20.812,20.812,0,0,0,0,21.13,20.664,20.664,0,0,0,14.354,40.7a2,2,0,0,0,.364.036.99.99,0,0,0,1.071-1.028c0-.49-.017-1.788-.026-3.508a10.144,10.144,0,0,1-2.111.239c-4.038,0-4.961-3.007-4.961-3.007a5.5,5.5,0,0,0-2.336-3.018c-1.827-1.228-.009-1.253.138-1.253H6.5A4.392,4.392,0,0,1,9.718,31.29a4.143,4.143,0,0,0,3.709,2.256,6.167,6.167,0,0,0,2.405-.54,4.368,4.368,0,0,1,1.33-2.759C12.5,29.732,7.6,27.958,7.6,20.054A7.882,7.882,0,0,1,9.76,14.518a7.218,7.218,0,0,1,.184-5.46,1.722,1.722,0,0,1,.465-.047c.759,0,2.469.276,5.308,2.163a20.128,20.128,0,0,1,10.5,0c2.82-1.886,4.525-2.163,5.282-2.163a1.717,1.717,0,0,1,.465.047,7.417,7.417,0,0,1,.21,5.46,7.914,7.914,0,0,1,2.152,5.535c0,7.925-4.907,9.669-9.578,10.177a4.9,4.9,0,0,1,1.417,3.817c0,2.761-.026,4.979-.026,5.649a.974.974,0,0,0,1.057,1.019,2.054,2.054,0,0,0,.386-.039A20.6,20.6,0,0,0,41.987,21.13,20.815,20.815,0,0,0,20.993.5m0-1a22.173,22.173,0,0,1,8.555,1.7,21.945,21.945,0,0,1,6.99,4.631A21.542,21.542,0,0,1,41.256,12.7a21.321,21.321,0,0,1-2.523,21.2,21.812,21.812,0,0,1-4.778,4.673,22.036,22.036,0,0,1-6.07,3.055l-.058.019-.06.012a3.066,3.066,0,0,1-.575.057,2.029,2.029,0,0,1-1.582-.685,2.054,2.054,0,0,1-.475-1.334c0-.225,0-.609.007-1.141.008-1.06.02-2.663.02-4.508A3.838,3.838,0,0,0,24.1,30.995l-1.787-1.506,2.324-.252a11.051,11.051,0,0,0,6.013-2.085c1.8-1.48,2.673-3.8,2.673-7.1A6.924,6.924,0,0,0,31.437,15.2l-.431-.465.237-.588a6.222,6.222,0,0,0,0-4.121A10.325,10.325,0,0,0,26.77,12l-.379.254-.44-.12a19.129,19.129,0,0,0-9.97,0l-.438.12-.378-.251a10.433,10.433,0,0,0-4.5-1.983,5.947,5.947,0,0,0,.01,4.082l.275.607-.455.488A6.894,6.894,0,0,0,8.6,20.054c0,3.289.874,5.61,2.67,7.1a11.018,11.018,0,0,0,6,2.1l2.285.253-1.743,1.5a3.328,3.328,0,0,0-.992,2.141l-.078.552-.51.224a7.137,7.137,0,0,1-2.807.624,5,5,0,0,1-3.994-1.917q.095.208.186.434l.02.049.007.026c.055.161.854,2.3,4.006,2.3a9.207,9.207,0,0,0,1.9-.217l1.2-.256.006,1.229c0,.953.013,1.792.018,2.4,0,.514.008.886.008,1.108a1.983,1.983,0,0,1-2.071,2.028,3.014,3.014,0,0,1-.546-.052l-.065-.012-.063-.021a22.006,22.006,0,0,1-10.8-7.742A21.359,21.359,0,0,1,.731,12.7,21.537,21.537,0,0,1,5.446,5.829,21.938,21.938,0,0,1,12.436,1.2,22.18,22.18,0,0,1,20.993-.5Z" fill="rgba(0,0,0,0.1)"/></g></g></svg>