<svg xmlns="http://www.w3.org/2000/svg" xmlns:xlink="http://www.w3.org/1999/xlink" width="48" height="48" viewBox="0 0 48 48"><defs><linearGradient id="a" x1="0.931" y1="-0.051" x2="0.037" y2="1.379" gradientUnits="objectBoundingBox"><stop offset="0" stop-color="#24dbfc"/><stop offset="1" stop-color="#1c3fff"/></linearGradient><clipPath id="c"><rect width="48" height="48"/></clipPath></defs><g id="b" clip-path="url(#c)"><g transform="translate(3 3.5)" fill="url(#a)"><path d="M20.993.5A20.812,20.812,0,0,0,0,21.13,20.664,20.664,0,0,0,14.354,40.7c1.05.194,1.435-.444,1.435-.992,0-.49-.017-1.788-.026-3.508-5.84,1.244-7.071-2.768-7.071-2.768a5.5,5.5,0,0,0-2.336-3.018c-1.9-1.279.147-1.253.147-1.253A4.392,4.392,0,0,1,9.718,31.29c1.872,3.154,4.914,2.243,6.114,1.716a4.368,4.368,0,0,1,1.33-2.759C12.5,29.732,7.6,27.958,7.6,20.054A7.882,7.882,0,0,1,9.76,14.518a7.218,7.218,0,0,1,.184-5.46s1.758-.553,5.773,2.115a20.128,20.128,0,0,1,10.5,0c3.989-2.668,5.747-2.115,5.747-2.115a7.417,7.417,0,0,1,.21,5.46,7.914,7.914,0,0,1,2.152,5.535c0,7.925-4.907,9.669-9.578,10.177a4.895,4.895,0,0,1,1.417,3.817c0,2.761-.026,4.979-.026,5.649,0,.541.367,1.186,1.443.98A20.6,20.6,0,0,0,41.987,21.13,20.815,20.815,0,0,0,20.993.5Z" stroke="none"/><path d="M 20.99342727661133 0.5 C 9.394557952880859 0.5 -3.814697265625e-06 9.737112045288086 -3.814697265625e-06 21.12954139709473 C -3.814697265625e-06 30.24594116210938 6.014617919921875 37.97677230834961 14.35425758361816 40.70241165161133 C 14.48578643798828 40.72674560546875 14.60687828063965 40.73800277709961 14.71808052062988 40.73800277709961 C 15.49433898925781 40.73800277709961 15.7888069152832 40.18943786621094 15.7888069152832 39.71047210693359 C 15.7888069152832 39.22063064575195 15.77131652832031 37.92254257202148 15.7625675201416 36.20283126831055 C 14.97878646850586 36.36977767944336 14.27787971496582 36.44206237792969 13.65195655822754 36.44206237792969 C 9.614334106445312 36.44206237792969 8.691276550292969 33.4351921081543 8.691276550292969 33.4351921081543 C 7.736076354980469 31.05418014526367 6.355758666992188 30.41738128662109 6.355758666992188 30.41738128662109 C 4.529201507568359 29.18903350830078 6.347095489501953 29.16474342346191 6.493518829345703 29.16474151611328 C 6.499538421630859 29.16474151611328 6.502708435058594 29.16478157043457 6.502708435058594 29.16478157043457 C 8.610797882080078 29.30823135375977 9.718208312988281 31.29036140441895 9.718208312988281 31.29036140441895 C 10.76430130004883 33.05308151245117 12.17595481872559 33.54608917236328 13.42730522155762 33.54608917236328 C 14.4151554107666 33.54608917236328 15.3030891418457 33.23888397216797 15.8325366973877 33.00657272338867 C 16.02148818969727 31.6717414855957 16.56206703186035 30.7637825012207 17.1621265411377 30.2476921081543 C 12.49983787536621 29.73160171508789 7.599617004394531 27.95766067504883 7.599617004394531 20.05363082885742 C 7.599617004394531 17.80209159851074 8.413116455078125 15.96166038513184 9.760189056396484 14.51836204528809 C 9.524017333984375 13.99703216552734 8.815486907958984 11.89944076538086 9.943885803222656 9.058322906494141 C 9.943885803222656 9.058322906494141 10.09488677978516 9.010871887207031 10.40923881530762 9.0108642578125 C 11.16787719726562 9.010841369628906 12.87835311889648 9.287117004394531 15.71707725524902 11.17341041564941 C 17.39655685424805 10.71505165100098 19.18099784851074 10.48763084411621 20.9654369354248 10.47713088989258 C 22.7498779296875 10.48763084411621 24.53431701660156 10.71505165100098 26.21379852294922 11.17341041564941 C 29.03372573852539 9.287277221679688 30.73891258239746 9.010887145996094 31.49605560302734 9.0108642578125 C 31.80988121032715 9.010852813720703 31.96074676513672 9.058322906494141 31.96074676513672 9.058322906494141 C 33.08913803100586 11.8994312286377 32.38060760498047 13.99703216552734 32.17067718505859 14.51836204528809 C 33.50900650024414 15.96166038513184 34.32250595092773 17.80209159851074 34.32250595092773 20.05363082885742 C 34.32250595092773 27.97865104675293 29.41528701782227 29.72285079956055 24.7442569732666 30.23019027709961 C 25.47902679443359 30.84950256347656 26.16130828857422 32.11436080932617 26.16130828857422 34.04750061035156 C 26.16130828857422 36.80813217163086 26.13506698608398 39.02643966674805 26.13506698608398 39.69647979736328 C 26.13506698608398 40.16635513305664 26.41275787353516 40.71559143066406 27.19190979003906 40.71559143066406 C 27.30915641784668 40.71559143066406 27.43764114379883 40.70317459106445 27.57836723327637 40.67617034912109 C 35.97748565673828 37.96802139282227 41.98685836791992 30.23194122314453 41.98685836791992 21.12954139709473 C 41.98685836791992 9.737112045288086 32.5870475769043 0.5 20.99342727661133 0.5 M 20.99342727661133 -0.5 C 23.95973777770996 -0.5 26.83809661865234 0.07126235961914062 29.54853820800781 1.197902679443359 C 32.16708755493164 2.286350250244141 34.51889801025391 3.844593048095703 36.53864669799805 5.829349517822266 C 38.55960845947266 7.815292358398438 40.14658737182617 10.12846183776855 41.25550842285156 12.70461082458496 C 42.40434646606445 15.37351226806641 42.98685836791992 18.20806121826172 42.98685836791992 21.12954139709473 C 42.98685836791992 25.76532173156738 41.515869140625 30.18123245239258 38.73290634155273 33.89987182617188 C 37.39223861694336 35.69129180908203 35.78472900390625 37.26348114013672 33.95500946044922 38.57277297973633 C 32.10165786743164 39.89897155761719 30.05949783325195 40.92687225341797 27.88524627685547 41.62792205810547 L 27.82694625854492 41.64672088623047 L 27.76678848266602 41.65826034545898 C 27.56849670410156 41.6963005065918 27.37508773803711 41.71559143066406 27.1919059753418 41.71559143066406 C 26.54764747619629 41.71559143066406 25.98574638366699 41.47220993041992 25.60970687866211 41.03029251098633 C 25.30362701416016 40.67058181762695 25.13506698608398 40.19689178466797 25.13506698608398 39.69647979736328 C 25.13506698608398 39.47166061401367 25.13788795471191 39.08753204345703 25.14178657531738 38.55588150024414 C 25.14955711364746 37.49560165405273 25.16130638122559 35.893310546875 25.16130638122559 34.04750061035156 C 25.16130638122559 32.04515075683594 24.34880638122559 31.2047119140625 24.09978675842285 30.99482154846191 L 22.31254768371582 29.48843002319336 L 24.63627815246582 29.23604202270508 C 27.37159729003906 28.93894195556641 29.28236770629883 28.27653121948242 30.64957809448242 27.15139007568359 C 32.44818878173828 25.67123031616211 33.32250595092773 23.34954071044922 33.32250595092773 20.05363082885742 C 33.32250595092773 18.18084144592285 32.68826675415039 16.54727172851562 31.43740844726562 15.19830131530762 L 31.00613784790039 14.73320198059082 L 31.24305725097656 14.14483070373535 C 31.42303276062012 13.69790077209473 31.91284561157227 12.16364097595215 31.24305152893066 10.02362251281738 C 30.5613842010498 10.08780288696289 29.11276817321777 10.43748664855957 26.76975631713867 12.0046215057373 L 26.39058685302734 12.25823211669922 L 25.95050811767578 12.13813209533691 C 24.38265228271484 11.71023178100586 22.7055549621582 11.48785209655762 20.9654369354248 11.47714805603027 C 19.22531890869141 11.48785209655762 17.5482234954834 11.71023178100586 15.98036766052246 12.13813209533691 L 15.54204750061035 12.25775146484375 L 15.16363716125488 12.00630187988281 C 12.80128479003906 10.43654632568359 11.34519386291504 10.08727836608887 10.66154098510742 10.02346611022949 C 9.932041168212891 12.35205841064453 10.58769607543945 13.92165565490723 10.67107772827148 14.10571098327637 L 10.94625663757324 14.71316146850586 L 10.49124717712402 15.20068168640137 C 9.236057281494141 16.5455322265625 8.599617004394531 18.17830085754395 8.599617004394531 20.05363082885742 C 8.599617004394531 23.34227180480957 9.473117828369141 25.66375160217285 11.27004814147949 27.15071105957031 C 12.63931655883789 28.28379058837891 14.54652786254883 28.95205116271973 17.27214813232422 29.25376129150391 L 19.5572566986084 29.50671005249023 L 17.8141975402832 31.00585174560547 C 17.52142715454102 31.25765228271484 17.0033073425293 31.8706111907959 16.82266807556152 33.14673233032227 L 16.74457740783691 33.69842147827148 L 16.23433685302734 33.92230224609375 C 15.58577728271484 34.20687103271484 14.57232666015625 34.54608917236328 13.42730712890625 34.54608917236328 C 12.26830673217773 34.54608917236328 10.70587921142578 34.19040679931641 9.433773040771484 32.62929916381836 C 9.497077941894531 32.76805114746094 9.559032440185547 32.91244506835938 9.619377136230469 33.06286239624023 L 9.639068603515625 33.11193084716797 L 9.646198272705078 33.13790512084961 C 9.701610565185547 33.29879760742188 10.50042152404785 35.44206237792969 13.65195655822754 35.44206237792969 C 14.2372875213623 35.44206237792969 14.8773078918457 35.36894989013672 15.55424690246582 35.22476959228516 L 16.75629806518555 34.96874237060547 L 16.76255798339844 36.1977424621582 C 16.76740646362305 37.15077972412109 16.77508735656738 37.98986053466797 16.78069686889648 38.60253143310547 C 16.78540802001953 39.11664199829102 16.7888069152832 39.48809051513672 16.7888069152832 39.71047210693359 C 16.7888069152832 40.71802139282227 16.07752799987793 41.73800277709961 14.71807670593262 41.73800277709961 C 14.54347801208496 41.73800277709961 14.35987663269043 41.72041320800781 14.17236709594727 41.68572998046875 L 14.10688781738281 41.67362213134766 L 14.04359817504883 41.65293121337891 C 11.88315773010254 40.94684219360352 9.852748870849609 39.91557312011719 8.008777618408203 38.58777236938477 C 6.186195373535156 37.27538299560547 4.584518432617188 35.70170974731445 3.248226165771484 33.91046142578125 C 0.4690170288085938 30.18503189086914 -1.000003814697266 25.76546096801758 -1.000003814697266 21.12954139709473 C -1.000003814697266 18.20795059204102 -0.4177627563476562 15.37344169616699 0.7305564880371094 12.70474052429199 C 1.839118957519531 10.12844085693359 3.425678253173828 7.815242767333984 5.446178436279297 5.829410552978516 C 7.465667724609375 3.844562530517578 9.817428588867188 2.286293029785156 12.43613815307617 1.197891235351562 C 15.14681816101074 0.07125091552734375 18.02590751647949 -0.5 20.99342727661133 -0.5 Z" stroke="none" fill="rgba(255,255,255,0.84)"/></g></g></svg>